<svg width="553" height="402" viewBox="0 0 553 402" fill="none" xmlns="http://www.w3.org/2000/svg">
<path d="M177.585 2.35908C207.276 -6.50077 238.533 10.3652 247.429 40.0455C256.325 69.7259 239.5 101.003 209.831 109.935C180.11 118.885 148.765 102.024 139.853 72.2915C130.941 42.5592 147.841 11.2347 177.585 2.35908Z" fill="#FF9040"/>
<path d="M310.993 2.35908C340.685 -6.50077 371.942 10.3652 380.838 40.0455C389.733 69.7259 372.908 101.003 343.239 109.935C313.518 118.885 282.173 102.024 273.261 72.2915C264.35 42.5592 281.249 11.2347 310.993 2.35908Z" fill="#FF9040"/>
<path d="M40.4961 290.169C70.473 281.224 102.03 298.252 111.012 328.217C119.993 358.183 103.006 389.76 73.0519 398.778C43.0454 407.815 11.3994 390.791 2.40201 360.773C-6.59539 330.755 10.4668 299.13 40.4961 290.169Z" fill="#57D06E"/>
<path d="M478.615 146.176C508.853 137.153 540.686 154.33 549.746 184.557C558.805 214.784 541.67 246.637 511.455 255.734C481.186 264.849 449.264 247.677 440.188 217.397C431.112 187.117 448.323 155.216 478.615 146.176Z" fill="#7F97F4"/>
<rect y="177.884" width="177.88" height="89.1911" rx="44.5955" transform="rotate(-90 0 177.884)" fill="#FF9040"/>
<rect x="127.232" y="157.708" width="221.443" height="100.487" rx="50.2435" fill="#7F97F4"/>
<path d="M472.694 291.5C501.921 282.779 532.689 299.381 541.446 328.597C550.202 357.812 533.64 388.6 504.436 397.392C475.18 406.203 444.325 389.605 435.553 360.338C426.781 331.071 443.416 300.237 472.694 291.5Z" fill="#57D06E"/>
<rect x="137.535" y="293.799" width="270.861" height="99.4497" rx="49.7249" fill="#57D06E"/>
</svg>
