<svg width="531" height="495" viewBox="0 0 531 495" fill="none" xmlns="http://www.w3.org/2000/svg">
<mask id="mask0_1047_5889" style="mask-type:alpha" maskUnits="userSpaceOnUse" x="0" y="0" width="531" height="495">
<path d="M385.18 30.3608C397.949 26.5507 411.391 33.8038 415.217 46.5679C419.042 59.3318 411.807 72.7822 399.048 76.6235C386.266 80.4726 372.786 73.2215 368.953 60.4351C365.121 47.6488 372.389 34.178 385.18 30.3608Z" fill="black" stroke="black" stroke-width="0.596848"/>
<path d="M303.874 2.22021C316.643 -1.58997 330.085 5.66316 333.911 18.4272C337.737 31.1911 330.501 44.6415 317.742 48.4829C304.961 52.332 291.48 45.0809 287.647 32.2944C283.815 19.5082 291.083 6.03738 303.874 2.22021Z" fill="black" stroke="black" stroke-width="0.596848"/>
<path d="M357.502 129.83C370.271 126.02 383.713 133.273 387.539 146.037C391.365 158.801 384.129 172.251 371.37 176.093C358.589 179.942 345.108 172.691 341.275 159.904C337.443 147.118 344.711 133.647 357.502 129.83Z" fill="black" stroke="black" stroke-width="0.596848"/>
<path d="M415.568 129.83C428.337 126.02 441.78 133.273 445.605 146.037C449.431 158.801 442.195 172.251 429.437 176.093C416.655 179.942 403.174 172.691 399.342 159.904C395.509 147.118 402.777 133.647 415.568 129.83Z" fill="black" stroke="black" stroke-width="0.596848"/>
<path d="M295.395 262.342C309.033 258.273 323.389 266.02 327.476 279.653C331.562 293.286 323.834 307.653 310.206 311.755C296.554 315.866 282.157 308.121 278.063 294.464C273.97 280.808 281.733 266.419 295.395 262.342Z" fill="black" stroke="black" stroke-width="0.596848"/>
<path d="M305.258 446.166C318.027 442.355 331.469 449.608 335.295 462.373C339.12 475.136 331.885 488.587 319.126 492.428C306.344 496.277 292.864 489.026 289.031 476.24C285.199 463.453 292.467 449.983 305.258 446.166Z" fill="black" stroke="black" stroke-width="0.596848"/>
<path d="M335.268 385.303C348.037 381.493 361.479 388.746 365.305 401.51C369.13 414.274 361.895 427.724 349.136 431.565C336.354 435.414 322.874 428.163 319.041 415.377C315.209 402.591 322.477 389.12 335.268 385.303Z" fill="black" stroke="black" stroke-width="0.596848"/>
<path d="M360.732 328.062C373.501 324.251 386.944 331.504 390.77 344.269C394.595 357.032 387.359 370.483 374.601 374.324C361.819 378.173 348.338 370.922 344.506 358.136C340.673 345.349 347.941 331.879 360.732 328.062Z" fill="black" stroke="black" stroke-width="0.596848"/>
<path d="M444.912 73.3799C457.681 69.5697 471.123 76.8228 474.949 89.5869C478.775 102.351 471.539 115.801 458.78 119.643C445.999 123.492 432.518 116.241 428.686 103.454C424.853 90.6678 432.121 77.1971 444.912 73.3799Z" fill="black" stroke="black" stroke-width="0.596848"/>
<path d="M497.043 196.121C510.775 192.023 525.23 199.823 529.345 213.549C533.459 227.276 525.677 241.742 511.956 245.873C498.211 250.012 483.714 242.213 479.593 228.462C475.471 214.712 483.287 200.225 497.043 196.121Z" fill="black" stroke="black" stroke-width="0.697738"/>
<path d="M244.808 25.3669C215.991 25.3669 187.456 31.1084 160.832 42.2637C134.208 53.4189 110.017 69.7694 89.64 90.3817C69.263 110.994 53.0991 135.464 42.0711 162.395C31.0432 189.327 25.3672 218.191 25.3672 247.341C25.3672 276.491 31.0432 305.356 42.0712 332.287C53.0991 359.218 69.263 383.689 89.64 404.301C110.017 424.913 134.208 441.264 160.832 452.419C187.456 463.574 215.991 469.316 244.808 469.316" stroke="black" stroke-width="50.7341" stroke-linecap="round"/>
<rect x="277.191" y="67.1587" width="86.6907" height="44.0131" rx="22.0066" fill="black" stroke="black" stroke-width="1.03816"/>
<rect x="388.775" y="457.077" width="80.9564" height="40.1399" rx="20.07" transform="rotate(-90 388.775 457.077)" fill="black" stroke="black" stroke-width="0.907504"/>
<rect x="277.126" y="209.927" width="80.9564" height="40.1399" rx="20.07" transform="rotate(-90 277.126 209.927)" fill="black" stroke="black" stroke-width="0.907504"/>
<rect x="335.684" y="201.548" width="101.005" height="45.3386" rx="22.6693" fill="black" stroke="black" stroke-width="0.907504"/>
<path d="M467.349 338.456C480.799 334.443 494.959 342.083 498.989 355.529C503.019 368.974 495.397 383.143 481.956 387.19C468.492 391.244 454.292 383.606 450.255 370.137C446.218 356.668 453.874 342.477 467.349 338.456ZM494.168 262.678C507.619 258.664 521.779 266.305 525.809 279.75C529.839 293.196 522.217 307.365 508.776 311.412C495.312 315.466 481.113 307.828 477.075 294.359C473.038 280.89 480.694 266.699 494.168 262.678ZM441.713 263.736C454.351 263.736 464.596 273.981 464.597 286.62C464.597 299.258 454.351 309.504 441.713 309.504H362.826C350.188 309.504 339.941 299.258 339.941 286.62C339.942 273.981 350.188 263.736 362.826 263.736H441.713Z" fill="black"/>
</mask>
<g mask="url(#mask0_1047_5889)">
<rect x="-59.0625" y="-3.42676" width="663.601" height="560.284" fill="url(#paint0_linear_1047_5889)"/>
</g>
<defs>
<linearGradient id="paint0_linear_1047_5889" x1="272.738" y1="-3.42676" x2="272.738" y2="556.857" gradientUnits="userSpaceOnUse">
<stop offset="0.105769" stop-color="#FF9040"/>
<stop offset="0.331731" stop-color="#D3B3DA"/>
<stop offset="0.495192" stop-color="#7F96F5"/>
<stop offset="0.677885" stop-color="#87C8CD"/>
<stop offset="0.947115" stop-color="#2ED71E"/>
</linearGradient>
</defs>
</svg>
